# xmcd CD database file
#
# Track frame offsets:
#	150
#	21167
#	38194
#	56134
#	72161
#	88581
#	101280
#	117186
#	136202
#	154383
#	174010
#	189334
#	213150
#	220578
#	241977
#
# Disc length: 3394 seconds
#
# Revision: 1
# Processed by: cddbd v1.5.2PL0 Copyright (c) Steve Scherf et al.
# Submitted via: CDex 1.70beta2
#
DISCID=c20d400f
DTITLE=Viktor Lazlo - Canoë Rose/Pleurer des Rivières
DYEAR=1999
DGENRE=Jazz
TTITLE0=Canoë Rose
TTITLE1=Pleurer des Rivières
TTITLE2=Shangai Lily
TTITLE3=blueser
TTITLE4=Mata Hari
TTITLE5=Put the Blame on Mame
TTITLE6=Last Call for an Angel
TTITLE7=I Don't Wanna Love Again
TTITLE8=Ain't Gonna Come
TTITLE9=Slow Motion
TTITLE10=Backdoor Man
TTITLE11=Sweet, Soft and Lazy
TTITLE12=She
TTITLE13=Stories
TTITLE14=Cry Me a River
EXTD=YEAR: 1999
EXTT0=
EXTT1=
EXTT2=
EXTT3=
EXTT4=
EXTT5=
EXTT6=
EXTT7=
EXTT8=
EXTT9=
EXTT10=
EXTT11=
EXTT12=
EXTT13=
EXTT14=
PLAYORDER=
